<!-- icon666.com - MILLIONS vector ICONS FREE --><svg id="Capa_1" enable-background="new 0 0 512 512" viewBox="0 0 512 512" xmlns="http://www.w3.org/2000/svg"><g><circle cx="256" cy="256" r="256" fill="#000000" style="fill: rgb(205, 162, 116);"></circle><g><path d="m117.421 117.421h277.158v277.158h-277.158z" fill="#fff" style="fill: rgb(41, 47, 54);"></path><path d="m303.601 333.952c5.583 9.115 12.846 15.816 25.692 15.816 10.792 0 17.685-5.394 17.685-12.846 0-8.931-7.083-12.094-18.961-17.289l-6.511-2.794c-18.794-8.007-31.279-18.037-31.279-39.242 0-19.533 14.883-34.403 38.142-34.403 16.559 0 28.464 5.763 37.042 20.853l-20.281 13.022c-4.465-8.007-9.283-11.161-16.761-11.161-7.628 0-12.463 4.839-12.463 11.161 0 7.813 4.839 10.976 16.014 15.816l6.511 2.789c22.129 9.489 34.623 19.163 34.623 40.914 0 23.448-18.42 36.294-43.157 36.294-24.188 0-39.814-11.526-47.46-26.634zm-92.003 2.257c4.091 7.259 7.813 13.396 16.761 13.396 8.557 0 13.955-3.348 13.955-16.366v-88.558h26.044v88.91c0 26.968-15.811 39.242-38.89 39.242-20.853 0-32.929-10.792-39.07-23.789z" fill="#000000" style="fill: rgb(205, 162, 116);"></path></g></g></svg>