<!-- icon666.com - MILLIONS vector ICONS FREE --><svg clip-rule="evenodd" fill-rule="evenodd" image-rendering="optimizeQuality" shape-rendering="geometricPrecision" text-rendering="geometricPrecision" viewBox="0 0 850 850" xmlns="http://www.w3.org/2000/svg"><g id="Layer_x0020_1"><circle cx="425" cy="425" fill="#4f576c" r="425" style="fill: rgb(255, 255, 255);"></circle><g id="_637277536"><g><g><path d="m674 672h-498c-4 0-7-3-7-7v-333c0-3 1-5 4-7 2-1 5-1 7 0l245 144 245-144c2-1 5-1 7 0 2 2 4 4 4 7v333c0 4-4 7-7 7zm-490-14h482v-313l-237 138c-2 2-5 2-8 0l-237-138z" fill="#fff" style="fill: rgb(205, 162, 116);"></path></g><g><path d="m674 339c-2 0-3 0-4-1l-113-65c-3-3-4-7-2-10 2-4 7-5 10-3l112 65c3 2 4 7 2 10-1 3-3 4-5 4zm-498 0c-2 0-5-1-6-4-2-3-1-8 3-10l112-65c3-2 8-1 10 2s1 8-2 10l-113 66c-1 1-2 1-4 1z" fill="#fff" style="fill: rgb(205, 162, 116);"></path></g><g><path d="m425 485c-1 0-2-1-4-1l-136-80c-2-2-4-4-4-7v-212c0-4 4-7 8-7h273c4 0 7 3 7 7v212c0 3-1 5-4 7l-136 79c-1 1-3 2-4 2zm-129-92 129 76 129-76v-200h-258z" fill="#fff" style="fill: rgb(205, 162, 116);"></path></g><g><path d="m439 316h-107c-4 0-7-3-7-7s3-8 7-8h107c4 0 7 4 7 8s-3 7-7 7z" fill="#fff" style="fill: rgb(205, 162, 116);"></path></g><g><path d="m535 278h-96c-5 0-8-4-8-8v-62c0-4 3-8 8-8h96c5 0 8 4 8 8v62c0 5-3 8-8 8zm-89-15h82v-47h-82z" fill="#fff" style="fill: rgb(205, 162, 116);"></path></g><g><path d="m480 356h-148c-4 0-7-4-7-8s3-7 7-7h148c4 0 8 3 8 7s-4 8-8 8z" fill="#fff" style="fill: rgb(205, 162, 116);"></path></g><g><path d="m521 396h-189c-4 0-7-3-7-7 0-5 3-8 7-8h189c4 0 8 3 8 8 0 4-4 7-8 7z" fill="#fff" style="fill: rgb(205, 162, 116);"></path></g><g><path d="m612 630h-370c-4 0-7-3-7-8 0-4 3-7 7-7h370c4 0 7 3 7 7 0 5-4 8-7 8z" fill="#fff" style="fill: rgb(205, 162, 116);"></path></g><g><path d="m372 501c-1 0-3-1-4-1l-157-97c-3-2-5-6-2-10 2-3 6-4 9-2l158 97c3 2 4 6 2 10-1 2-4 3-6 3z" fill="#fff" style="fill: rgb(205, 162, 116);"></path></g><g><path d="m478 501c-2 0-5-1-6-3-2-4-1-8 3-10l157-97c3-2 8-1 10 2 2 4 1 8-3 10l-157 97c-1 1-2 1-4 1z" fill="#fff" style="fill: rgb(205, 162, 116);"></path></g></g></g></g></svg>