<?xml version="1.0" encoding="UTF-8" standalone="no" ?>
<!DOCTYPE svg PUBLIC "-//W3C//DTD SVG 1.1//EN" "http://www.w3.org/Graphics/SVG/1.1/DTD/svg11.dtd">
<svg xmlns="http://www.w3.org/2000/svg" xmlns:xlink="http://www.w3.org/1999/xlink" version="1.1" width="400" height="400" viewBox="0 0 400 400" xml:space="preserve">
<desc>Created with Fabric.js 3.6.2</desc>
<defs>
</defs>
<g transform="matrix(3.13 0 0 3.13 200 200)" id="Layer_1"  >
<circle style="stroke: none; stroke-width: 1; stroke-dasharray: none; stroke-linecap: butt; stroke-dashoffset: 0; stroke-linejoin: miter; stroke-miterlimit: 4; fill: rgb(118,194,175); fill-rule: nonzero; opacity: 1;"  cx="0" cy="0" r="32" />
</g>
<g transform="matrix(3.13 0 0 3.13 250 206.25)" id="Layer_1"  >
<path style="stroke: none; stroke-width: 1; stroke-dasharray: none; stroke-linecap: butt; stroke-dashoffset: 0; stroke-linejoin: miter; stroke-miterlimit: 4; fill: rgb(35,31,32); fill-rule: nonzero; opacity: 0.2;"  transform=" translate(-48, -34)" d="M 42.461 44 c -0.671 0 -1.326 -0.338 -1.705 -0.951 c -0.58 -0.94 -0.287 -2.172 0.653 -2.752 l 10.124 -6.242 c 0.005 -0.018 0.007 -0.036 0.007 -0.056 s -0.002 -0.038 -0.007 -0.056 L 41.41 27.703 c -0.94 -0.58 -1.232 -1.812 -0.653 -2.752 c 0.58 -0.94 1.812 -1.232 2.752 -0.653 l 10.63 6.554 l 0.165 0.165 c 0.797 0.797 1.236 1.856 1.236 2.983 c 0 1.126 -0.439 2.186 -1.236 2.983 l -0.166 0.166 l -10.63 6.554 C 43.182 43.904 42.819 44 42.461 44 z" stroke-linecap="round" />
</g>
<g transform="matrix(3.13 0 0 3.13 150 206.25)" id="Layer_1"  >
<path style="stroke: none; stroke-width: 1; stroke-dasharray: none; stroke-linecap: butt; stroke-dashoffset: 0; stroke-linejoin: miter; stroke-miterlimit: 4; fill: rgb(35,31,32); fill-rule: nonzero; opacity: 0.2;"  transform=" translate(-16, -34)" d="M 21.539 44 c -0.358 0 -0.721 -0.096 -1.048 -0.298 l -10.63 -6.554 l -0.166 -0.166 C 8.898 36.186 8.459 35.126 8.459 34 c 0 -1.127 0.439 -2.187 1.236 -2.983 l 0.165 -0.165 l 10.63 -6.554 c 0.941 -0.58 2.172 -0.287 2.752 0.653 c 0.58 0.94 0.287 2.172 -0.653 2.752 l -10.124 6.242 c -0.005 0.018 -0.007 0.036 -0.007 0.056 s 0.002 0.038 0.007 0.056 l 10.124 6.242 c 0.94 0.58 1.232 1.812 0.653 2.752 C 22.865 43.663 22.209 44 21.539 44 z" stroke-linecap="round" />
</g>
<g transform="matrix(3.13 0 0 3.13 200 206.25)" id="Layer_1"  >
<path style="stroke: none; stroke-width: 1; stroke-dasharray: none; stroke-linecap: butt; stroke-dashoffset: 0; stroke-linejoin: miter; stroke-miterlimit: 4; fill: rgb(35,31,32); fill-rule: nonzero; opacity: 0.2;"  transform=" translate(-32, -34)" d="M 25.5 53 c -0.237 0 -0.479 -0.042 -0.714 -0.132 c -1.032 -0.395 -1.548 -1.551 -1.154 -2.583 l 13 -34 c 0.395 -1.032 1.551 -1.549 2.583 -1.154 c 1.032 0.395 1.548 1.551 1.154 2.583 l -13 34 C 27.063 52.511 26.305 53 25.5 53 z" stroke-linecap="round" />
</g>
<g transform="matrix(3.13 0 0 3.13 250 200)" id="Layer_1"  >
<path style="stroke: none; stroke-width: 1; stroke-dasharray: none; stroke-linecap: butt; stroke-dashoffset: 0; stroke-linejoin: miter; stroke-miterlimit: 4; fill: rgb(255,255,255); fill-rule: nonzero; opacity: 1;"  transform=" translate(-48, -32)" d="M 42.461 42 c -0.671 0 -1.327 -0.337 -1.705 -0.95 c -0.58 -0.94 -0.287 -2.173 0.653 -2.752 l 10.123 -6.241 c 0.01 -0.037 0.01 -0.076 0 -0.113 L 41.41 25.702 c -0.94 -0.579 -1.233 -1.812 -0.653 -2.752 c 0.58 -0.94 1.811 -1.233 2.752 -0.652 l 10.631 6.554 l 0.166 0.165 c 1.644 1.646 1.644 4.321 0 5.967 l -0.166 0.165 l -10.631 6.554 C 43.182 41.904 42.819 42 42.461 42 z" stroke-linecap="round" />
</g>
<g transform="matrix(3.13 0 0 3.13 150 200)" id="Layer_1"  >
<path style="stroke: none; stroke-width: 1; stroke-dasharray: none; stroke-linecap: butt; stroke-dashoffset: 0; stroke-linejoin: miter; stroke-miterlimit: 4; fill: rgb(255,255,255); fill-rule: nonzero; opacity: 1;"  transform=" translate(-16, -32)" d="M 21.539 42 c -0.358 0 -0.72 -0.096 -1.047 -0.298 L 9.86 35.148 l -0.166 -0.165 c -1.644 -1.646 -1.644 -4.321 0 -5.967 l 0.166 -0.165 l 10.631 -6.554 c 0.939 -0.581 2.173 -0.288 2.752 0.652 c 0.58 0.94 0.287 2.173 -0.653 2.752 l -10.123 6.241 c -0.01 0.037 -0.01 0.076 0 0.113 l 10.123 6.241 c 0.94 0.579 1.233 1.812 0.653 2.752 C 22.865 41.663 22.209 42 21.539 42 z" stroke-linecap="round" />
</g>
<g transform="matrix(3.13 0 0 3.13 200 200)" id="Layer_1"  >
<path style="stroke: none; stroke-width: 1; stroke-dasharray: none; stroke-linecap: butt; stroke-dashoffset: 0; stroke-linejoin: miter; stroke-miterlimit: 4; fill: rgb(255,255,255); fill-rule: nonzero; opacity: 1;"  transform=" translate(-32, -32)" d="M 25.5 51.001 c -0.237 0 -0.479 -0.043 -0.714 -0.133 c -1.032 -0.395 -1.548 -1.551 -1.154 -2.582 l 13 -34 c 0.395 -1.031 1.551 -1.55 2.583 -1.154 c 1.032 0.395 1.548 1.551 1.154 2.582 l -13 34 C 27.063 50.511 26.305 51.001 25.5 51.001 z" stroke-linecap="round" />
</g>
</svg>