<!-- icon666.com - MILLIONS vector ICONS FREE --><svg id="Layer_1" viewBox="0 0 512 512" xmlns="http://www.w3.org/2000/svg" data-name="Layer 1"><circle cx="256.558" cy="256" fill="#f79405" r="256" style="fill: rgb(255, 255, 255);"></circle><path d="m338.594 288.2a8 8 0 0 0 -11.314.009l-31.708 31.757c-.183.185-1.757.707-5.587-.317-27.9-7.453-89.629-69.083-97.126-96.975-1.029-3.829-.51-5.4-.325-5.586l31.706-31.758a8 8 0 0 0 -.009-11.314l-70.778-70.667a8 8 0 0 0 -11.314.01l-15.684 15.709c-23.255 23.286-30.655 59.217-20.843 101.172 9.5 40.6 34.121 82.325 69.342 117.492s76.988 59.727 117.6 69.158a152.506 152.506 0 0 0 34.53 4.172c27.039-.021 50.042-8.579 66.612-25.174l15.684-15.708a8 8 0 0 0 -.009-11.315zm43.78 86.385c-19.2 19.232-49.816 25.171-86.2 16.721-37.743-8.764-76.778-31.811-109.914-64.9s-56.245-72.08-65.068-109.806c-8.506-36.373-2.616-66.995 16.586-86.227l10.031-10.048 59.456 59.363-26.054 26.1c-3.4 3.406-6.82 9.82-3.8 21.044 9.014 33.539 74.9 99.318 108.449 108.281 11.226 3 17.637-.432 21.039-3.836l26.054-26.1 59.456 59.363zm-152.8-255.256a8 8 0 0 1 5.186-10.055c21.829-6.973 45.708-7.468 69.054-1.429a142.526 142.526 0 0 1 100.828 100.662c6.075 23.337 5.618 47.216-1.321 69.056a8 8 0 1 1 -15.248-4.845c12.47-39.249.04-85.066-31.666-116.721s-77.548-44.015-116.773-31.485a8 8 0 0 1 -10.055-5.185zm120.994 141.571c9.806-26.362 2.044-57.472-19.772-79.252s-52.938-29.494-79.283-19.648a8 8 0 0 1 -5.6-14.988c32.2-12.031 69.955-2.881 96.191 23.311s35.444 63.937 23.463 96.154a8 8 0 0 1 -15-5.578zm-37.633-12.625c6.892-12.692 3.7-29.543-7.748-40.977s-28.313-14.6-40.99-7.685a8 8 0 0 1 -7.658-14.049c18.864-10.282 43.518-6 59.954 10.41s20.754 41.056 10.5 59.936a8 8 0 0 1 -14.061-7.635z" fill="#fff" style="fill: rgb(205, 162, 116);"></path></svg>