<!-- icon666.com - MILLIONS OF FREE VECTOR ICONS --><svg id="Layer_1" enable-background="new 0 0 512 512" viewBox="0 0 512 512" xmlns="http://www.w3.org/2000/svg"><circle cx="256" cy="256" fill="#ffa726" r="256" style="fill: rgb(205, 162, 116);"></circle><g><g><g><g id="XMLID_1_" fill="#fffffe"><path d="m333.3 109.2h-154.6c-3.2 0-5.8 2.6-5.8 5.8v22.2h166.2v-22.2c0-3.2-2.6-5.8-5.8-5.8zm-141.7 23.8c-5.4 0-9.7-4.4-9.7-9.7 0-5.4 4.4-9.7 9.7-9.7s9.7 4.4 9.7 9.7c.1 5.3-4.3 9.7-9.7 9.7zm25 0c-5.4 0-9.7-4.4-9.7-9.7 0-5.4 4.4-9.7 9.7-9.7 5.4 0 9.7 4.4 9.7 9.7s-4.4 9.7-9.7 9.7zm24.9 0c-5.4 0-9.7-4.4-9.7-9.7 0-5.4 4.4-9.7 9.7-9.7s9.7 4.4 9.7 9.7c.1 5.3-4.3 9.7-9.7 9.7zm61-6.3h-40.7c-1.9 0-3.5-1.6-3.5-3.5s1.5-3.5 3.5-3.5h40.7c1.9 0 3.5 1.5 3.5 3.5s-1.5 3.5-3.5 3.5zm24.7 0h-2.2v2.1c0 1.9-1.6 3.5-3.5 3.5s-3.5-1.6-3.5-3.5v-2.1h-2.1c-1.9 0-3.5-1.6-3.5-3.5s1.5-3.5 3.5-3.5h2.1v-2.1c0-1.9 1.6-3.5 3.5-3.5s3.5 1.6 3.5 3.5v2.1h2.1c1.9 0 3.5 1.5 3.5 3.5s-1.5 3.5-3.4 3.5z" fill="#fffffe" style="fill: rgb(41, 47, 54);"></path><circle cx="191.6" cy="123.2" r="2.8" fill="#fffffe" style="fill: rgb(41, 47, 54);"></circle><circle cx="216.6" cy="123.2" r="2.8" fill="#fffffe" style="fill: rgb(41, 47, 54);"></circle><circle cx="241.5" cy="123.2" r="2.8" fill="#fffffe" style="fill: rgb(41, 47, 54);"></circle><path d="m172.9 144.2v117c0 3.2 2.6 5.8 5.8 5.8h154.6c3.2 0 5.8-2.6 5.8-5.8v-117zm59.1 82.4c1.5 1.2 1.7 3.4.5 4.9-.7.8-1.7 1.3-2.7 1.3-.8 0-1.5-.3-2.2-.8l-29-23.7c-.8-.7-1.3-1.7-1.3-2.7s.5-2 1.3-2.7l29-23.7c1.5-1.2 3.7-1 4.9.5s1 3.7-.5 4.9l-25.7 21zm34.8-47.7-14.8 55.3c-.4 1.5-1.8 2.6-3.4 2.6-.3 0-.6 0-.9-.1-1.9-.5-3-2.4-2.5-4.3l14.8-55.4c.5-1.9 2.4-3 4.3-2.5 1.9.6 3 2.5 2.5 4.4zm46.6 29.4-29 23.7c-.6.5-1.4.8-2.2.8-1 0-2-.4-2.7-1.3-1.2-1.5-1-3.7.5-4.9l25.7-21-25.7-21c-1.5-1.2-1.7-3.4-.5-4.9s3.4-1.7 4.9-.5l29 23.7c.8.7 1.3 1.6 1.3 2.7 0 1-.5 2-1.3 2.7z" fill="#fffffe" style="fill: rgb(41, 47, 54);"></path><path d="m163.7 328.6h-38.6c-4.8 0-8.8 4-8.8 8.8v56.6c0 4.9 4 8.8 8.8 8.8h38.6c4.8 0 8.8-3.9 8.8-8.8v-56.6c0-4.9-3.9-8.8-8.8-8.8zm-5.7 67h-27.1c-1.9 0-3.5-1.6-3.5-3.5s1.6-3.5 3.5-3.5h27.1c1.9 0 3.5 1.6 3.5 3.5-.1 2-1.6 3.5-3.5 3.5zm0-13.2h-27.1c-1.9 0-3.5-1.6-3.5-3.5s1.6-3.5 3.5-3.5h27.1c1.9 0 3.5 1.6 3.5 3.5-.1 1.9-1.6 3.5-3.5 3.5zm0-13.3h-27.1c-1.9 0-3.5-1.6-3.5-3.5s1.6-3.5 3.5-3.5h27.1c1.9 0 3.5 1.6 3.5 3.5-.1 2-1.6 3.5-3.5 3.5zm0-13.2h-27.1c-1.9 0-3.5-1.6-3.5-3.5s1.6-3.5 3.5-3.5h27.1c1.9 0 3.5 1.6 3.5 3.5s-1.6 3.5-3.5 3.5zm0-13.2h-27.1c-1.9 0-3.5-1.6-3.5-3.5s1.6-3.5 3.5-3.5h27.1c1.9 0 3.5 1.6 3.5 3.5-.1 1.9-1.6 3.5-3.5 3.5z" fill="#fffffe" style="fill: rgb(41, 47, 54);"></path><path d="m275.3 328.6h-38.6c-4.8 0-8.8 4-8.8 8.8v56.6c0 4.9 3.9 8.8 8.8 8.8h38.6c4.8 0 8.8-3.9 8.8-8.8v-56.6c0-4.9-4-8.8-8.8-8.8zm-5.8 67h-27.1c-1.9 0-3.5-1.6-3.5-3.5s1.6-3.5 3.5-3.5h27.1c1.9 0 3.5 1.6 3.5 3.5 0 2-1.6 3.5-3.5 3.5zm0-13.2h-27.1c-1.9 0-3.5-1.6-3.5-3.5s1.6-3.5 3.5-3.5h27.1c1.9 0 3.5 1.6 3.5 3.5s-1.6 3.5-3.5 3.5zm0-13.3h-27.1c-1.9 0-3.5-1.6-3.5-3.5s1.6-3.5 3.5-3.5h27.1c1.9 0 3.5 1.6 3.5 3.5 0 2-1.6 3.5-3.5 3.5zm0-13.2h-27.1c-1.9 0-3.5-1.6-3.5-3.5s1.6-3.5 3.5-3.5h27.1c1.9 0 3.5 1.6 3.5 3.5s-1.6 3.5-3.5 3.5zm0-13.2h-27.1c-1.9 0-3.5-1.6-3.5-3.5s1.6-3.5 3.5-3.5h27.1c1.9 0 3.5 1.6 3.5 3.5s-1.6 3.5-3.5 3.5z" fill="#fffffe" style="fill: rgb(41, 47, 54);"></path><path d="m386.9 328.6h-38.6c-4.8 0-8.8 4-8.8 8.8v56.6c0 4.9 3.9 8.8 8.8 8.8h38.6c4.8 0 8.8-3.9 8.8-8.8v-56.6c0-4.9-4-8.8-8.8-8.8zm-5.8 67h-27.1c-1.9 0-3.5-1.6-3.5-3.5s1.6-3.5 3.5-3.5h27.1c1.9 0 3.5 1.6 3.5 3.5 0 2-1.6 3.5-3.5 3.5zm0-13.2h-27.1c-1.9 0-3.5-1.6-3.5-3.5s1.6-3.5 3.5-3.5h27.1c1.9 0 3.5 1.6 3.5 3.5s-1.6 3.5-3.5 3.5zm0-13.3h-27.1c-1.9 0-3.5-1.6-3.5-3.5s1.6-3.5 3.5-3.5h27.1c1.9 0 3.5 1.6 3.5 3.5 0 2-1.6 3.5-3.5 3.5zm0-13.2h-27.1c-1.9 0-3.5-1.6-3.5-3.5s1.6-3.5 3.5-3.5h27.1c1.9 0 3.5 1.6 3.5 3.5s-1.6 3.5-3.5 3.5zm0-13.2h-27.1c-1.9 0-3.5-1.6-3.5-3.5s1.6-3.5 3.5-3.5h27.1c1.9 0 3.5 1.6 3.5 3.5s-1.6 3.5-3.5 3.5z" fill="#fffffe" style="fill: rgb(41, 47, 54);"></path><path d="m371 314.2v7.4h-7v-7.4c0-2.2-1.8-3.9-3.9-3.9h-30.3c-6 0-10.9-4.9-10.9-10.9v-25.4h7v25.4c0 2.2 1.8 3.9 3.9 3.9h30.3c6.1 0 10.9 4.9 10.9 10.9z" fill="#fffffe" style="fill: rgb(41, 47, 54);"></path><path d="m252.5 274h7v47.7h-7z" fill="#fffffe" style="fill: rgb(41, 47, 54);"></path><path d="m193 274v25.4c0 6-4.9 10.9-10.9 10.9h-30.3c-2.2 0-3.9 1.8-3.9 3.9v7.4h-7v-7.4c0-6 4.9-10.9 10.9-10.9h30.3c2.2 0 3.9-1.8 3.9-3.9v-25.4z" fill="#fffffe" style="fill: rgb(41, 47, 54);"></path></g></g></g></g></svg>