<!-- icon666.com - MILLIONS vector ICONS FREE --><svg enable-background="new 0 0 492 492" viewBox="0 0 492 492" xmlns="http://www.w3.org/2000/svg"><g id="Layer_2"><path clip-rule="evenodd" d="m246.26.98c135.21 0 245.76 110.549 245.76 245.76 0 135.21-110.549 245.76-245.76 245.76-135.21 0-245.76-110.55-245.76-245.76 0-135.21 110.55-245.76 245.76-245.76z" fill="#6d4c41" fill-rule="evenodd" style="fill: rgb(255, 255, 255);"></path></g><g id="Layer_1"><g><g><g clip-rule="evenodd" fill="#fffffe" fill-rule="evenodd"><path d="m371.719 279.972c-3.383 12.709-8.736 24.962-15.997 36.378-18.594 29.237-47.459 49.483-81.283 57.01-9.455 2.105-18.974 3.143-28.431 3.143-11.123 0-22.153-1.44-32.858-4.279 7.91-9.121 16.846-16.608 25.381-21.229 6.463-3.5 11.968-5.849 18.996-8.104 11.998-3.847 27.554-9.695 41.477-20.867 5.532-4.436 10.787-9.637 16.069-15.896 4.519-5.355 11.429-9.425 17.553-12.819 12.744-7.065 26.189-11.642 39.093-13.337z" fill="#fffffe" style="fill: rgb(205, 162, 116);"></path><path d="m363.572 191.261c3.901 8.293 6.948 17.061 9.064 26.198-5.203.586-17.497 2.495-30.804 5.479 8.09-10.455 15.162-20.689 21.025-30.471.24-.405.48-.807.715-1.206z" fill="#fffffe" style="fill: rgb(205, 162, 116);"></path><path d="m326.611 232.714c-13.862 16.483-30.023 33.292-47.733 49.548-33.695 30.923-68.909 56.088-99.154 70.86-1.528.745-3.033 1.46-4.517 2.142-16.088-10.526-29.379-24.199-39.23-40.107 2.053.091 4.1.135 6.143.135 11.587 0 22.962-1.439 33.943-4.298 15.33-3.995 29.176-10.598 41.152-19.625 35.569-26.808 70.556-45.98 103.988-56.98 1.754-.578 3.562-1.137 5.408-1.675z" fill="#fffffe" style="fill: rgb(205, 162, 116);"></path><path d="m373.807 223.064c3.19 17.113 2.922 34.384-.662 50.994-14.271 1.543-29.211 6.463-43.283 14.262-6.568 3.642-14.004 8.034-19.147 14.131-5.04 5.974-10.038 10.92-15.278 15.124-13.195 10.586-28.121 16.188-39.652 19.884-7.292 2.34-13.265 4.886-19.971 8.519-9.744 5.28-19.913 13.972-28.66 24.499-9.034-2.872-17.801-6.759-26.159-11.636.408-.198.817-.395 1.23-.597 30.725-15.005 66.42-40.497 100.507-71.784 20.115-18.461 38.267-37.652 53.381-56.308 16.108-3.998 32.49-6.553 37.694-7.088z" fill="#fffffe" style="fill: rgb(205, 162, 116);"></path><path d="m360.511 185.176c-.814 1.433-1.663 2.886-2.545 4.357-6.799 11.345-15.265 23.317-25.079 35.546-4.609 1.18-9.179 2.482-13.465 3.89-34.029 11.197-69.57 30.658-105.638 57.845-22.071 16.634-50.869 24.575-81.248 22.435-5.828-10.638-10.182-22.166-12.889-34.335-1.96-8.808-2.998-17.677-3.129-26.495 2.09.534 4.181 1.151 6.353 1.794 3.181.941 6.472 1.915 9.828 2.613 7.069 1.472 14.104 2.202 21.313 2.202 2.881 0 5.787-.117 8.734-.35 10.675-.84 20.535-5.789 26.374-13.239 2.714-3.463 5.005-7.306 7.22-11.025 1.908-3.201 3.878-6.509 6.062-9.455 6.263-8.444 12.219-13.568 18.744-16.127 8.069-3.162 17.95-4.937 29.39-6.991 12.434-2.235 26.53-4.765 40.886-9.725 22.656-7.824 35.347-17.497 47.619-26.851.954-.724 1.925-1.466 2.9-2.205 7.263 7.902 13.493 16.664 18.57 26.116z" fill="#fffffe" style="fill: rgb(205, 162, 116);"></path><path d="m337.958 154.922c-.8.605-1.594 1.213-2.378 1.81-11.914 9.081-24.234 18.471-46.024 25.998-13.937 4.814-27.801 7.303-40.033 9.501-11.246 2.021-21.87 3.931-30.461 7.296-7.565 2.965-14.317 8.696-21.243 18.037-2.356 3.176-4.401 6.61-6.381 9.933-2.221 3.729-4.319 7.249-6.809 10.426-4.872 6.216-13.221 10.355-22.334 11.071-9.783.77-19.085.198-28.439-1.75-3.125-.651-6.3-1.589-9.371-2.497-2.581-.765-5.229-1.547-7.924-2.188.275-9.018 1.496-17.955 3.645-26.691 32.831-6.834 46.988-21.849 58.405-33.956 7.089-7.518 12.689-13.458 21.039-15.896 5.7-1.662 10.027-2.387 12.889-2.866 12.728-2.128 25.519-8.466 36.014-17.85 8.88-7.938 15.53-17.528 18.559-26.661 17.131 2.784 33.679 9.049 48.764 18.645.143.093.289.184.432.277 7.904 5.067 15.144 10.889 21.65 17.361z" fill="#fffffe" style="fill: rgb(205, 162, 116);"></path><path d="m261.357 117.834c-2.858 7.907-8.773 16.21-16.606 23.214-9.7 8.675-21.474 14.527-33.15 16.478-3.806.637-7.991 1.393-13.549 3.017-9.837 2.872-16.208 9.63-23.59 17.456-10.523 11.161-23.498 24.92-52.56 31.656 3.397-11.335 8.384-22.269 14.906-32.526 18.594-29.237 47.459-49.483 81.283-57.01 9.455-2.105 18.974-3.143 28.431-3.143 4.968 0 9.922.285 14.835.858z" fill="#fffffe" style="fill: rgb(205, 162, 116);"></path><path d="m375.256 128.36c5.327 5.805 6.724 14.665 4.155 26.337-1.948 8.841-6.12 19.105-12.427 30.587-1.031-2.029-2.114-4.032-3.25-6.006 11.734-22.428 14.445-39.297 7.321-47.061-3.708-4.042-9.984-5.691-18.652-4.902-7.975.728-17.67 3.484-28.867 8.21-1.509-1.047-3.042-2.063-4.599-3.056-.366-.231-.731-.462-1.097-.689 28.134-12.52 47.975-13.705 57.416-3.42z" fill="#fffffe" style="fill: rgb(205, 162, 116);"></path><path d="m173.593 361.011c.382.243.765.484 1.15.721-11.989 5.307-22.58 8.591-31.563 9.774-2.497.329-4.855.493-7.07.493-8.3 0-14.611-2.305-18.814-6.886-4.953-5.397-6.531-13.423-4.692-23.851 1.643-9.322 5.999-20.445 12.945-33.072 1.031 2.026 2.112 4.029 3.248 6.003-5.625 10.719-9.179 20.143-10.576 28.06-1.515 8.591-.411 14.985 3.28 19.005 7.128 7.765 24.176 6.505 47.536-3.278 1.492 1.039 3.013 2.049 4.556 3.031z" fill="#fffffe" style="fill: rgb(205, 162, 116);"></path></g></g></g></g></svg>